<svg xmlns="http://www.w3.org/2000/svg" version="1.1" xmlns:xlink="http://www.w3.org/1999/xlink" width="75.5" height="75.5"><svg id="SvgjsSvg1005" xmlns="http://www.w3.org/2000/svg" version="1.1" viewBox="0 0 75.5 75.5">
  <!-- Generator: Adobe Illustrator 29.5.1, SVG Export Plug-In . SVG Version: 2.1.0 Build 141)  -->
  <defs>
    <style>
      .st0 {
        fill: #211815;
      }

      .st1 {
        fill: #fff;
      }
    </style>
  </defs>
  <circle class="st1" cx="37.7" cy="37.6" r="36.9"></circle>
  <path class="st0" d="M35.8,28.4c-1.2.7-2.5,1.2-4,1.2-2.1,0-4-.9-5.4-2.3l-8,4.9c.3.8.4,1.6.4,2.5s-.1,1.7-.4,2.4l8.1,4.9c1.4-1.3,3.2-2.2,5.3-2.2s5.1,1.4,6.4,3.6l6.2-3.8c-.1-.5-.2-1-.2-1.6,0-1.4.4-2.7,1-3.8l-9.5-5.8h0Z"></path>
  <path class="st0" d="M11.3,27.1c2.1,0,4,.9,5.4,2.3l8-4.9c-.3-.8-.4-1.6-.4-2.5,0-4.2,3.4-7.6,7.6-7.6s4.6,1.2,6,3l6.5-4.1c0-.3,0-.7,0-1.1,0-2.8,1.6-5.3,3.8-6.6-3.3-1.1-6.9-1.7-10.5-1.7-16.4,0-30,11.7-33,27.2,1.3-2.4,3.8-4,6.7-4h0Z"></path>
  <path class="st0" d="M44.3,63.5c0-1.1.2-2.2.7-3.1l-9.9-6.1c-1,.5-2.1.7-3.2.7-4.2,0-7.6-3.4-7.6-7.6s.2-1.8.5-2.6l-8-4.9c-1.4,1.4-3.3,2.3-5.4,2.3-3.5,0-6.4-2.3-7.3-5.5,0,.3,0,.5,0,.8,0,18.6,15.1,33.7,33.7,33.7s6.8-.5,10-1.5c-2-1.4-3.3-3.7-3.3-6.3h0Z"></path>
  <path class="st0" d="M59.5,12c0,0,0,.1,0,.2,0,4.2-3.4,7.6-7.6,7.6s-4.9-1.3-6.3-3.3l-6.4,3.9c.1.5.2,1,.2,1.6,0,1.5-.4,2.8-1.2,4l9.4,5.7c1.2-.8,2.6-1.3,4.2-1.3,4.2,0,7.6,3.4,7.6,7.6s-3.4,7.6-7.6,7.6-4.6-1.2-6-2.9l-6.5,4c0,.2,0,.5,0,.7,0,1.7-.6,3.4-1.6,4.6l9.2,5.6c1.3-1.1,3-1.8,4.9-1.8,4.1,0,7.4,3.2,7.6,7.3,7.2-6.2,11.8-15.4,11.8-25.6s-4.6-19.4-11.8-25.6h0Z"></path>
</svg><style>@media (prefers-color-scheme: light) { :root { filter: none; } }
@media (prefers-color-scheme: dark) { :root { filter: none; } }
</style></svg>