<?xml version="1.0" encoding="UTF-8"?>
<svg id="_背景" data-name="背景" xmlns="http://www.w3.org/2000/svg" version="1.1" viewBox="0 0 242.3 75.5">
  <!-- Generator: Adobe Illustrator 29.5.1, SVG Export Plug-In . SVG Version: 2.1.0 Build 141)  -->
  <defs>
    <style>
      .st0 {
        fill: #211815;
      }
    </style>
  </defs>
  <path class="st0" d="M142.2,22.1l-3.2,2.2c-3.8-5.2-10.2-11.8-18.6-11.8s-4.6,1.2-4.6,4.9v42.6c0,4.1,3.9,5.6,7.9,6.3v3.7h-27.8v-3.7c3.8-.7,8.1-2.5,8.1-6.3V17.3c0-3.6-1.4-4.8-4.7-4.8-8.9,0-14.6,8.1-16.9,11.5l-4-1.8,7.7-16h4.5l1.4,1.5h37.6l2.2-1.5h3.8l6.5,15.9Z"/>
  <path class="st0" d="M160.6,65.4c-1.2,1.3-3.4,2.3-6.1,2.3s-5.5-.8-7.3-2.9c-1.8,1.5-5.2,3.6-11,3.6s-12.5-3.2-12.5-9.7,10.3-11.2,15.1-12.6c2.7-.8,5.3-1.6,7.3-2.3v-4.2c0-3.9-2.2-6.2-4.9-6.2s-4.2,2-5.2,4.4c-1.2,2.6-2.3,4.3-4.8,4.3s-4-1.6-4-3.9c0-3.9,5.4-8.2,14-8.2s14.2,4.2,14.2,10.8v19.1c0,3.3,3.8,4.4,5.2,3.8v1.7ZM146.1,48.3c-5.2.2-13,3.6-13,9.2s2.3,6.4,6,6.4,7-2.7,7-6.5v-9.1Z"/>
  <path class="st0" d="M217.6,70.8h-30.5v-3.8c2.6-.6,6.4-2,6.4-5s-.4-2-1.4-3.3l-10.1-13.8-9.6,12.2c-1.6,2.1-2.3,3.7-2.3,5.2,0,2.5,2.1,4,5,4.7v3.8h-25.2v-3.7c3.4-.7,8.4-1.8,13.1-7.7l15.4-19.4-15.8-21.3c-3.7-5-9.7-6.1-12-6.2v-3.9h30.6v4c-2.5.5-5.5,1.7-5.5,4.1s.3,1.5,1,2.5l8.8,12,8.9-11.2c.8-1,1.1-1.9,1.1-2.7,0-2.4-2.6-4.1-4.5-4.6v-3.9h23.4v3.9c-3.9.9-7.6,1-14,9l-11.4,14.5,16.7,23c4,5.4,8.8,7.4,11.8,7.9v4Z"/>
  <path class="st0" d="M234.6,38.5c-2.7,0-4.2-1.5-6.1-1.5s-5.4,3-7,6.2v15.8c0,3.8,3.1,4.4,5,5v3h-19.8v-3.1c2.5-.7,5.5-1.5,5.5-5.4v-12.2c0-4.3-2.1-5.2-3.1-5.3l-2.3-.3v-3.2c1.8-.7,3.7-1.6,5.5-2.6,2.2-1.2,4.2-2.5,5.5-3.5h3.6v5.5c2.9-3.3,6.9-6.5,11.6-6.5s5.3,2.4,5.3,4.2-1.8,3.9-3.9,3.9Z"/>
  <g>
    <path class="st0" d="M35.8,27.5c-1.3.8-2.8,1.3-4.5,1.3-2.4,0-4.5-1-6.1-2.5l-9,5.5c.3.9.5,1.8.5,2.8s-.2,1.9-.4,2.7l9,5.5c1.5-1.5,3.6-2.4,6-2.4s5.7,1.6,7.2,4l6.9-4.3c-.1-.6-.2-1.2-.2-1.8,0-1.6.4-3,1.2-4.3l-10.7-6.5Z"/>
    <path class="st0" d="M8.2,26c2.4,0,4.5,1,6.1,2.5l9-5.5c-.3-.9-.5-1.8-.5-2.8,0-4.7,3.8-8.5,8.5-8.5s5.2,1.3,6.7,3.3l7.3-4.5c0-.4,0-.8,0-1.2,0-3.2,1.7-5.9,4.3-7.4-3.7-1.2-7.7-1.9-11.8-1.9C19.4,0,4.1,13.1.7,30.5c1.4-2.7,4.3-4.5,7.5-4.5Z"/>
    <path class="st0" d="M45.3,66.8c0-1.3.3-2.4.8-3.5l-11.1-6.8c-1.1.5-2.3.8-3.6.8-4.7,0-8.5-3.8-8.5-8.5s.2-2,.5-2.9l-9-5.5c-1.5,1.6-3.7,2.6-6.1,2.6-3.9,0-7.2-2.6-8.2-6.2,0,.3,0,.6,0,.9,0,20.9,16.9,37.8,37.8,37.8s7.7-.6,11.2-1.7c-2.2-1.5-3.7-4.1-3.7-7Z"/>
    <path class="st0" d="M62.3,9.1c0,0,0,.2,0,.2,0,4.7-3.8,8.5-8.5,8.5s-5.5-1.5-7-3.7l-7.1,4.4c.1.6.2,1.1.2,1.7,0,1.6-.5,3.2-1.3,4.5l10.6,6.4c1.4-.9,3-1.4,4.7-1.4,4.7,0,8.5,3.8,8.5,8.5s-3.8,8.5-8.5,8.5-5.2-1.3-6.7-3.3l-7.3,4.5c0,.3,0,.5,0,.8,0,2-.7,3.8-1.8,5.2l10.3,6.3c1.5-1.2,3.4-2,5.5-2,4.6,0,8.3,3.6,8.5,8.2,8.1-6.9,13.2-17.2,13.2-28.7s-5.1-21.8-13.2-28.7Z"/>
  </g>
</svg>