<?xml version="1.0" encoding="UTF-8"?><svg id="_背景" xmlns="http://www.w3.org/2000/svg" viewBox="0 0 259.14 75.51"><defs><style>.cls-1{fill:#211815;}</style></defs><path class="cls-1" d="M142.16,22.14l-3.19,2.15c-3.83-5.18-10.21-11.8-18.58-11.8-2.87,0-4.63,1.2-4.63,4.87v42.59c0,4.15,3.91,5.58,7.9,6.3v3.75h-27.75v-3.75c3.83-.72,8.13-2.47,8.13-6.3V17.27c0-3.59-1.44-4.79-4.71-4.79-8.93,0-14.59,8.13-16.91,11.48l-3.99-1.75,7.66-15.95h4.47l1.44,1.52h37.65l2.23-1.52h3.83l6.46,15.87Z"/><path class="cls-1" d="M166.48,68.23c-1.28,1.44-3.75,2.55-6.7,2.55-3.35,0-6.06-.88-7.98-3.19-1.99,1.67-5.66,3.91-12.04,3.91-7.5,0-13.64-3.51-13.64-10.61,0-9.57,11.25-12.28,16.51-13.8,2.95-.88,5.82-1.75,7.98-2.47v-4.55c0-4.31-2.39-6.78-5.34-6.78-2.71,0-4.63,2.15-5.74,4.79-1.28,2.87-2.55,4.71-5.26,4.71-2.87,0-4.39-1.75-4.39-4.23,0-4.31,5.9-9.01,15.31-9.01s15.55,4.55,15.55,11.8v20.9c0,3.59,4.15,4.87,5.74,4.15v1.83ZM150.61,49.49c-5.66.24-14.2,3.99-14.2,10.05,0,4.55,2.47,7.02,6.54,7.02s7.66-2.95,7.66-7.1v-9.97Z"/><path class="cls-1" d="M214.77,69.99h-22.73v-3.43c1.44-.64,3.43-1.75,3.43-3.59,0-.72-.32-1.52-1.12-2.47l-4.23-5.42-5.66,5.9c-.88.96-1.2,1.75-1.2,2.55,0,1.51,1.6,2.63,3.27,3.19v3.27h-17.71v-3.35c3.43-1.04,5.42-1.28,10.13-6.22l8.45-8.69-10.77-13.56c-2.39-3.03-5.1-3.27-6.94-3.67v-3.43h22.49v3.11c-1.91.72-3.35,1.75-3.35,3.19,0,.72.24,1.44.96,2.31l4.15,5.18,4.55-4.71c1.28-1.28,1.67-2.23,1.67-3.03,0-1.59-2.07-2.31-3.59-2.71v-3.35h15.95v3.43c-2.39.88-4.07,1.04-8.06,5.26l-7.9,8.38,10.21,12.52c2.55,3.19,5.82,5.26,7.98,5.9v3.43Z"/><path class="cls-1" d="M247.63,38.8c-2.95,0-4.55-1.59-6.62-1.59-2.47,0-5.9,3.27-7.66,6.78v17.31c0,4.15,3.35,4.87,5.5,5.42v3.27h-21.61v-3.35c2.71-.72,5.98-1.67,5.98-5.9v-13.4c0-4.71-2.31-5.66-3.43-5.82l-2.47-.32v-3.51c1.99-.72,4.07-1.75,6.06-2.79,2.39-1.28,4.55-2.71,5.98-3.83h3.99v6.06c3.19-3.59,7.5-7.1,12.68-7.1,3.99,0,5.82,2.63,5.82,4.55,0,2.39-1.99,4.23-4.23,4.23Z"/><path class="cls-1" d="M35.76,27.46c-1.3.81-2.84,1.29-4.48,1.29-2.37,0-4.52-.97-6.06-2.54l-8.96,5.54c.3.87.47,1.79.47,2.76s-.16,1.86-.45,2.71l9.03,5.5c1.54-1.51,3.64-2.45,5.97-2.45,3.05,0,5.72,1.61,7.23,4.03l6.95-4.3c-.12-.57-.19-1.16-.19-1.77,0-1.56.43-3.02,1.16-4.27l-10.66-6.5Z"/><path class="cls-1" d="M8.2,25.99c2.37,0,4.52.97,6.06,2.54l8.96-5.54c-.3-.87-.47-1.79-.47-2.76,0-4.7,3.81-8.52,8.52-8.52,2.74,0,5.18,1.3,6.74,3.32l7.34-4.55c-.05-.39-.09-.78-.09-1.19,0-3.17,1.74-5.94,4.31-7.4-3.72-1.22-7.69-1.9-11.82-1.9C19.4,0,4.11,13.1.71,30.46c1.44-2.66,4.25-4.46,7.49-4.46Z"/><path class="cls-1" d="M45.26,66.79c0-1.25.28-2.44.76-3.51l-11.14-6.79c-1.1.51-2.32.81-3.61.81-4.7,0-8.52-3.81-8.52-8.52,0-1.02.19-1.99.51-2.89l-8.96-5.46c-1.55,1.59-3.71,2.59-6.1,2.59-3.89,0-7.16-2.61-8.18-6.17,0,.3-.02.59-.02.89,0,20.85,16.9,37.75,37.75,37.75,3.9,0,7.67-.59,11.21-1.69-2.24-1.53-3.7-4.11-3.7-7.02Z"/><path class="cls-1" d="M62.28,9.06c0,.08.01.16.01.24,0,4.7-3.81,8.52-8.52,8.52-2.93,0-5.52-1.48-7.05-3.74l-7.12,4.41c.12.56.18,1.15.18,1.75,0,1.65-.48,3.18-1.29,4.48l10.55,6.43c1.35-.9,2.97-1.43,4.72-1.43,4.7,0,8.52,3.81,8.52,8.52s-3.81,8.52-8.52,8.52c-2.74,0-5.16-1.29-6.72-3.3l-7.31,4.52c.03.27.04.54.04.82,0,1.96-.67,3.76-1.78,5.19l10.3,6.28c1.48-1.24,3.38-1.99,5.46-1.99,4.59,0,8.32,3.63,8.5,8.17,8.1-6.92,13.24-17.21,13.24-28.7s-5.14-21.77-13.23-28.69Z"/></svg>