<?xml version="1.0" encoding="UTF-8"?><svg id="_背景" xmlns="http://www.w3.org/2000/svg" viewBox="0 0 260.87 75.51"><defs><style>.cls-1{fill:#211815;}</style></defs><path class="cls-1" d="M115.76,59.94V17.35c0-3.67,1.75-4.87,4.63-4.87,8.37,0,14.75,6.62,18.58,11.8l3.19-2.15-6.46-15.87h-3.83l-2.23,1.52h-37.65l-1.44-1.52h-4.47l-7.66,15.95,3.99,1.75c2.31-3.35,7.98-11.48,16.91-11.48,3.27,0,4.71,1.2,4.71,4.79v42.67c0,3.83-4.31,5.58-8.13,6.3v3.75h27.75v-3.75c-3.99-.72-7.9-2.15-7.9-6.3Z"/><path class="cls-1" d="M249.08,34.75c-4.74,0-8.68,3.21-11.59,6.49v-5.54h-3.65c-1.31,1.02-3.28,2.33-5.47,3.5-1.82.95-3.72,1.9-5.54,2.55v3.21l2.26.29c1.02.15,3.13,1.02,3.13,5.32v12.25c0,1.7-.58,2.82-1.43,3.6-.69.63-1.68.77-2.58.52-2.96-.85-6.88-2.98-10.23-7.54l-16.67-22.97,11.41-14.52c6.38-8.06,10.05-8.14,13.96-9.01v-3.91h-23.45v3.91c1.99.56,4.55,2.23,4.55,4.63,0,.8-.32,1.67-1.12,2.71l-8.93,11.25-8.77-11.96c-.64-.96-.96-1.75-.96-2.47,0-2.39,3.03-3.59,5.5-4.07v-3.99h-30.63v3.91c2.31.16,8.29,1.2,11.96,6.22l15.79,21.3-15.39,19.38c-3.08,3.91-6.26,5.71-9.05,6.68-2.08.73-4.36-.76-4.39-2.96,0-.02,0-.04,0-.06v-19.1c0-6.63-5.98-10.79-14.22-10.79s-14,4.3-14,8.24c0,2.26,1.39,3.86,4.01,3.86,2.48,0,3.65-1.68,4.81-4.3,1.02-2.41,2.77-4.37,5.25-4.37,2.7,0,4.88,2.26,4.88,6.2v4.16c-1.97.66-4.59,1.46-7.29,2.26-4.81,1.39-15.09,3.86-15.09,12.61,0,6.49,5.61,9.7,12.47,9.7,5.83,0,9.19-2.04,11.01-3.57,1.75,2.11,4.23,2.92,7.29,2.92.42,0,26.43.01,26.43.01v-3.83c-2.95-.72-5.02-2.23-5.02-4.71,0-1.44.72-3.11,2.31-5.18l9.57-12.2,10.13,13.8c.96,1.28,1.36,2.39,1.36,3.27,0,3.03-3.83,4.47-6.38,5.02v3.83h47.2v-2.99c-1.97-.51-5.03-1.17-5.03-4.96v-15.82c1.6-3.21,4.74-6.2,7-6.2,1.9,0,3.35,1.46,6.05,1.46,2.04,0,3.86-1.68,3.86-3.86,0-1.75-1.68-4.16-5.32-4.16ZM148.54,60.91c0,3.79-3.35,6.49-7,6.49s-5.98-2.26-5.98-6.42c0-5.54,7.8-8.97,12.98-9.19v9.11Z"/><path class="cls-1" d="M35.76,27.46c-1.3.81-2.84,1.29-4.48,1.29-2.37,0-4.52-.97-6.06-2.54l-8.96,5.54c.3.87.47,1.79.47,2.76s-.16,1.86-.45,2.71l9.03,5.5c1.54-1.51,3.64-2.45,5.97-2.45,3.05,0,5.72,1.61,7.23,4.03l6.95-4.3c-.12-.57-.19-1.16-.19-1.77,0-1.56.43-3.02,1.16-4.27l-10.66-6.5Z"/><path class="cls-1" d="M8.2,25.99c2.37,0,4.52.97,6.06,2.54l8.96-5.54c-.3-.87-.47-1.79-.47-2.76,0-4.7,3.81-8.52,8.52-8.52,2.74,0,5.18,1.3,6.74,3.32l7.34-4.55c-.05-.39-.09-.78-.09-1.19,0-3.17,1.74-5.94,4.31-7.4-3.72-1.22-7.69-1.9-11.82-1.9C19.4,0,4.11,13.1.71,30.46c1.44-2.66,4.25-4.46,7.49-4.46Z"/><path class="cls-1" d="M45.26,66.79c0-1.25.28-2.44.76-3.51l-11.14-6.79c-1.1.51-2.32.81-3.61.81-4.7,0-8.52-3.81-8.52-8.52,0-1.02.19-1.99.51-2.89l-8.96-5.46c-1.55,1.59-3.71,2.59-6.1,2.59-3.89,0-7.16-2.61-8.18-6.17,0,.3-.02.59-.02.89,0,20.85,16.9,37.75,37.75,37.75,3.9,0,7.67-.59,11.21-1.69-2.24-1.53-3.7-4.11-3.7-7.02Z"/><path class="cls-1" d="M62.28,9.06c0,.08.01.16.01.24,0,4.7-3.81,8.52-8.52,8.52-2.93,0-5.52-1.48-7.05-3.74l-7.12,4.41c.12.56.18,1.15.18,1.75,0,1.65-.48,3.18-1.29,4.48l10.55,6.43c1.35-.9,2.97-1.43,4.72-1.43,4.7,0,8.52,3.81,8.52,8.52s-3.81,8.52-8.52,8.52c-2.74,0-5.16-1.29-6.72-3.3l-7.31,4.52c.03.27.04.54.04.82,0,1.96-.67,3.76-1.78,5.19l10.3,6.28c1.48-1.24,3.38-1.99,5.46-1.99,4.59,0,8.32,3.63,8.5,8.17,8.1-6.92,13.24-17.21,13.24-28.7s-5.14-21.77-13.23-28.69Z"/></svg>